<svg xmlns="http://www.w3.org/2000/svg" width="1200" height="630" viewBox="0 0 1200 630" role="img" aria-label="Verify the AI — deterministic checks for ChatGPT and Claude math mistakes">
  <defs>
    <radialGradient id="glow" cx="82%" cy="18%" r="65%">
      <stop offset="0" stop-color="#10b981" stop-opacity="0.30"/>
      <stop offset="1" stop-color="#10b981" stop-opacity="0"/>
    </radialGradient>
    <linearGradient id="topbar" x1="0" y1="0" x2="1" y2="0">
      <stop offset="0" stop-color="#10b981"/>
      <stop offset="1" stop-color="#047857"/>
    </linearGradient>
  </defs>
  <rect width="1200" height="630" fill="#0a0a0a"/>
  <rect width="1200" height="630" fill="url(#glow)"/>
  <rect width="1200" height="6" fill="url(#topbar)"/>

  <g transform="translate(80,56)">
    <g stroke="#10b981" stroke-width="2.6" stroke-linecap="round" stroke-linejoin="round" fill="none" transform="scale(1.35)">
      <path d="M4 15.5C6.4 10.3 10.8 7 16 7s9.6 3.3 12 8.5" opacity="0.35"/>
      <path d="M6.5 19.5C8.6 15.2 11.9 12.7 16 12.7s7.4 2.5 9.5 6.8" opacity="0.6"/>
      <path d="M9 23C10.6 19.9 13.1 18.2 16 18.2s5.4 1.7 7 4.8" opacity="0.95"/>
      <path d="M16 23v3.5"/>
    </g>
    <text x="52" y="27" font-family="ui-sans-serif, system-ui, Segoe UI, Roboto, sans-serif" font-size="23" font-weight="600" fill="#ffffff" letter-spacing="-0.3">OpsCanopy</text>
  </g>

  <g transform="translate(80,168)">
    <circle cx="6" cy="-7" r="6" fill="#10b981"/>
    <text x="22" y="0" font-family="ui-sans-serif, system-ui, Segoe UI, Roboto, sans-serif" font-size="20" font-weight="700" letter-spacing="2.5" fill="#10b981">VERIFY THE AI</text>
  </g>

  <text font-family="ui-sans-serif, system-ui, Segoe UI, Roboto, sans-serif" font-weight="800" font-size="72" fill="#ffffff">
    <tspan x="80" y="272">AI is a brilliant guesser.</tspan>
    <tspan x="80" y="358">This checks the math.</tspan>
  </text>

  <text x="80" y="430" font-family="ui-sans-serif, system-ui, Segoe UI, Roboto, sans-serif" font-size="30" font-weight="500" fill="#a3a3a3">Recompute a ChatGPT or Claude answer exactly, locally.</text>

  <g transform="translate(80,478)" font-family="ui-monospace, SFMono-Regular, Menlo, Consolas, monospace" font-size="20" fill="#737373">
    <text x="0" y="0">Subnets</text>
    <text x="160" y="0">·</text>
    <text x="185" y="0">Cron</text>
    <text x="290" y="0">·</text>
    <text x="315" y="0">Timestamps</text>
    <text x="530" y="0">·</text>
    <text x="555" y="0">Base64</text>
  </g>

  <text x="1120" y="572" text-anchor="end" font-family="ui-monospace, SFMono-Regular, Menlo, Consolas, monospace" font-size="22" fill="#737373">opscanopy.com/verify-ai</text>
</svg>
