<svg xmlns="http://www.w3.org/2000/svg" viewBox="0 0 1200 630" role="img" aria-label="Docker run to Compose — OpsCanopy Docker guide">
  <defs>
    <linearGradient id="bg" x1="0" y1="0" x2="1" y2="1"><stop offset="0" stop-color="#3f6ea5"/><stop offset="1" stop-color="#2f7d82"/></linearGradient>
    <linearGradient id="sheen" x1="0" y1="0" x2="0" y2="1"><stop offset="0" stop-color="#ffffff" stop-opacity="0.16"/><stop offset="1" stop-color="#ffffff" stop-opacity="0"/></linearGradient>
    <pattern id="grid" width="40" height="40" patternUnits="userSpaceOnUse"><path d="M40 0 H0 V40" fill="none" stroke="#ffffff" stroke-opacity="0.07" stroke-width="1"/></pattern>
  </defs>
  <rect width="1200" height="630" fill="url(#bg)"/>
  <rect width="1200" height="630" fill="url(#grid)"/>
  <rect width="1200" height="320" fill="url(#sheen)"/>
  <circle cx="980" cy="315" r="210" fill="#ffffff" fill-opacity="0.08"/>
  <text x="80" y="150" font-family="ui-sans-serif, system-ui, Segoe UI, Roboto, sans-serif" font-size="26" font-weight="700" letter-spacing="5" fill="#ffffff" fill-opacity="0.85">DOCKER</text>
  <text font-family="ui-sans-serif, system-ui, Segoe UI, Roboto, sans-serif" font-size="68" font-weight="800" fill="#ffffff"><tspan x="80" y="300">docker run →</tspan><tspan x="80" y="384">docker-compose.yml</tspan></text>
  <text x="80" y="560" font-family="ui-monospace, SFMono-Regular, Menlo, Consolas, monospace" font-size="24" fill="#ffffff" fill-opacity="0.72">opscanopy.com</text>
  <g transform="translate(980,315)" stroke="#ffffff" stroke-opacity="0.95" stroke-width="7" fill="none" stroke-linecap="round" stroke-linejoin="round">
    <rect x="-118" y="-52" width="58" height="44" rx="9"/>
    <rect x="-118" y="14" width="58" height="44" rx="9"/>
    <line x1="-48" y1="2" x2="12" y2="2"/>
    <polyline points="-4,-14 16,2 -4,18"/>
    <rect x="42" y="-78" width="80" height="38" rx="9"/>
    <rect x="42" y="-19" width="80" height="38" rx="9"/>
    <rect x="42" y="40" width="80" height="38" rx="9"/>
    <circle cx="62" cy="-59" r="4" fill="#ffffff" fill-opacity="0.9" stroke="none"/>
    <circle cx="62" cy="0" r="4" fill="#ffffff" fill-opacity="0.9" stroke="none"/>
    <circle cx="62" cy="59" r="4" fill="#ffffff" fill-opacity="0.9" stroke="none"/>
  </g>
</svg>
