<svg xmlns="http://www.w3.org/2000/svg" viewBox="0 0 1200 630" role="img" aria-label="Reading cron expressions — OpsCanopy scheduling guide">
  <defs>
    <linearGradient id="bg" x1="0" y1="0" x2="1" y2="1"><stop offset="0" stop-color="#f43f5e"/><stop offset="1" stop-color="#be123c"/></linearGradient>
    <linearGradient id="sheen" x1="0" y1="0" x2="0" y2="1"><stop offset="0" stop-color="#ffffff" stop-opacity="0.16"/><stop offset="1" stop-color="#ffffff" stop-opacity="0"/></linearGradient>
    <pattern id="grid" width="40" height="40" patternUnits="userSpaceOnUse"><path d="M40 0 H0 V40" fill="none" stroke="#ffffff" stroke-opacity="0.07" stroke-width="1"/></pattern>
  </defs>
  <rect width="1200" height="630" fill="url(#bg)"/>
  <rect width="1200" height="630" fill="url(#grid)"/>
  <rect width="1200" height="320" fill="url(#sheen)"/>
  <circle cx="980" cy="315" r="210" fill="#ffffff" fill-opacity="0.08"/>
  <text x="80" y="150" font-family="ui-sans-serif, system-ui, Segoe UI, Roboto, sans-serif" font-size="26" font-weight="700" letter-spacing="5" fill="#ffffff" fill-opacity="0.85">SCHEDULING</text>
  <text font-family="ui-sans-serif, system-ui, Segoe UI, Roboto, sans-serif" font-size="68" font-weight="800" fill="#ffffff"><tspan x="80" y="300">Reading cron</tspan><tspan x="80" y="384">expressions</tspan></text>
  <text x="80" y="560" font-family="ui-monospace, SFMono-Regular, Menlo, Consolas, monospace" font-size="24" fill="#ffffff" fill-opacity="0.72">opscanopy.com</text>
  <g transform="translate(980,315)" stroke="#ffffff" stroke-opacity="0.95" stroke-width="7" fill="none" stroke-linecap="round" stroke-linejoin="round">
    <circle cx="0" cy="0" r="108"/>
    <line x1="0" y1="0" x2="0" y2="-68"/>
    <line x1="0" y1="0" x2="50" y2="34"/>
    <circle cx="0" cy="0" r="8" fill="#ffffff" fill-opacity="0.9" stroke="none"/>
    <line x1="0" y1="-128" x2="0" y2="-150"/>
    <line x1="73" y1="-105" x2="86" y2="-123"/>
    <line x1="119" y1="-31" x2="139" y2="-37"/>
    <line x1="119" y1="31" x2="139" y2="37"/>
    <line x1="73" y1="105" x2="86" y2="123"/>
  </g>
</svg>
