<svg xmlns="http://www.w3.org/2000/svg" viewBox="0 0 1200 600" role="img" aria-label="Migrating from cron to systemd timers">
  <defs>
    <linearGradient id="bg" x1="0" y1="0" x2="1" y2="1"><stop offset="0" stop-color="#0f172a"/><stop offset="1" stop-color="#1e293b"/></linearGradient>
    <linearGradient id="accent" x1="0" y1="0" x2="1" y2="0"><stop offset="0" stop-color="#10b981"/><stop offset="1" stop-color="#047857"/></linearGradient>
  </defs>
  <rect width="1200" height="600" rx="24" fill="url(#bg)"/>
  <rect x="1.5" y="1.5" width="1197" height="597" rx="24" fill="none" stroke="#334155" stroke-width="3"/>
  <rect x="72" y="104" width="80" height="8" rx="4" fill="url(#accent)"/>
  <text x="72" y="166" font-family="ui-sans-serif, system-ui, Segoe UI, Roboto, sans-serif" font-size="26" font-weight="600" letter-spacing="3" fill="#34d399">SYSTEMD · GUIDE</text>
  <text font-family="ui-sans-serif, system-ui, Segoe UI, Roboto, sans-serif" font-size="70" font-weight="700" fill="#f8fafc"><tspan x="72" y="290">cron →</tspan><tspan x="72" y="372">systemd timers</tspan></text>
  <text x="72" y="540" font-family="ui-monospace, SFMono-Regular, Menlo, Consolas, monospace" font-size="24" fill="#94a3b8">opscanopy.com</text>
  <g transform="translate(950,300)" stroke="#34d399" stroke-width="6" fill="none" stroke-linecap="round" stroke-linejoin="round" opacity="0.95"><circle cx="-38" cy="-38" r="42"/><circle cx="-38" cy="-38" r="14"/><line x1="-38" y1="-92" x2="-38" y2="-72"/><line x1="-38" y1="-4" x2="-38" y2="16"/><line x1="-92" y1="-38" x2="-72" y2="-38"/><line x1="-4" y1="-38" x2="16" y2="-38"/><line x1="-76" y1="-76" x2="-62" y2="-62"/><line x1="-14" y1="-14" x2="0" y2="0"/><line x1="0" y1="-76" x2="-14" y2="-62"/><line x1="-62" y1="-14" x2="-76" y2="0"/><circle cx="42" cy="42" r="42"/><circle cx="42" cy="42" r="14"/><line x1="42" y1="-12" x2="42" y2="8"/><line x1="42" y1="76" x2="42" y2="96"/><line x1="-12" y1="42" x2="8" y2="42"/><line x1="76" y1="42" x2="96" y2="42"/><line x1="4" y1="4" x2="18" y2="18"/><line x1="66" y1="66" x2="80" y2="80"/><line x1="80" y1="4" x2="66" y2="18"/><line x1="18" y1="66" x2="4" y2="80"/></g>
</svg>
