<svg xmlns="http://www.w3.org/2000/svg" viewBox="0 0 1200 600" role="img" aria-label="Why Isnt My Alert Reaching the Right Receiver? Debugging Alertmanager Routing">
  <defs>
    <linearGradient id="bg" x1="0" y1="0" x2="1" y2="1"><stop offset="0" stop-color="#0f172a"/><stop offset="1" stop-color="#1e293b"/></linearGradient>
    <linearGradient id="accent" x1="0" y1="0" x2="1" y2="0"><stop offset="0" stop-color="#10b981"/><stop offset="1" stop-color="#047857"/></linearGradient>
  </defs>
  <rect width="1200" height="600" rx="24" fill="url(#bg)"/>
  <rect x="1.5" y="1.5" width="1197" height="597" rx="24" fill="none" stroke="#334155" stroke-width="3"/>
  <rect x="72" y="104" width="80" height="8" rx="4" fill="url(#accent)"/>
  <text x="72" y="166" font-family="ui-sans-serif, system-ui, Segoe UI, Roboto, sans-serif" font-size="26" font-weight="600" letter-spacing="3" fill="#34d399">OBSERVABILITY · GUIDE</text>
  <text font-family="ui-sans-serif, system-ui, Segoe UI, Roboto, sans-serif" font-size="70" font-weight="700" fill="#f8fafc"><tspan x="72" y="290">Debugging Alert</tspan><tspan x="72" y="372">Routing</tspan></text>
  <text x="72" y="540" font-family="ui-monospace, SFMono-Regular, Menlo, Consolas, monospace" font-size="24" fill="#94a3b8">opscanopy.com</text>
  <g transform="translate(880,300)" stroke="#34d399" stroke-width="6" fill="none" stroke-linecap="round" stroke-linejoin="round" opacity="0.95"><path d="M-60 -20 a40 40 0 0 1 80 0 v30 l15 25 h-110 l15 -25 z"/><path d="M-12 50 a12 12 0 0 0 24 0"/><circle cx="-78" cy="55" r="14"/><circle cx="78" cy="20" r="14"/><circle cx="78" cy="90" r="14"/><polyline points="-64,55 0,55 0,20 64,20"/><line x1="0" y1="90" x2="64" y2="90"/></g>
</svg>
