<svg xmlns="http://www.w3.org/2000/svg" viewBox="0 0 1200 630" role="img" aria-label="Stop shipping a stale .env.example — OpsCanopy config guide">
  <defs>
    <linearGradient id="bg" x1="0" y1="0" x2="1" y2="1"><stop offset="0" stop-color="#10b981"/><stop offset="1" stop-color="#047857"/></linearGradient>
    <linearGradient id="sheen" x1="0" y1="0" x2="0" y2="1"><stop offset="0" stop-color="#ffffff" stop-opacity="0.16"/><stop offset="1" stop-color="#ffffff" stop-opacity="0"/></linearGradient>
    <pattern id="grid" width="40" height="40" patternUnits="userSpaceOnUse"><path d="M40 0 H0 V40" fill="none" stroke="#ffffff" stroke-opacity="0.07" stroke-width="1"/></pattern>
  </defs>
  <rect width="1200" height="630" fill="url(#bg)"/>
  <rect width="1200" height="630" fill="url(#grid)"/>
  <rect width="1200" height="320" fill="url(#sheen)"/>
  <circle cx="980" cy="315" r="210" fill="#ffffff" fill-opacity="0.08"/>
  <text x="80" y="150" font-family="ui-sans-serif, system-ui, Segoe UI, Roboto, sans-serif" font-size="26" font-weight="700" letter-spacing="5" fill="#ffffff" fill-opacity="0.85">CONFIG</text>
  <text font-family="ui-sans-serif, system-ui, Segoe UI, Roboto, sans-serif" font-size="68" font-weight="800" fill="#ffffff"><tspan x="80" y="300">Stop a stale</tspan><tspan x="80" y="384">.env.example</tspan></text>
  <text x="80" y="560" font-family="ui-monospace, SFMono-Regular, Menlo, Consolas, monospace" font-size="24" fill="#ffffff" fill-opacity="0.72">opscanopy.com</text>
  <g transform="translate(980,315)" stroke="#ffffff" stroke-opacity="0.95" stroke-width="7" fill="none" stroke-linecap="round" stroke-linejoin="round">
    <path d="M-80 -122 H42 L80 -84 V122 H-80 Z"/>
    <path d="M42 -122 V-84 H80"/>
    <line x1="-46" y1="-50" x2="18" y2="-50"/>
    <line x1="-46" y1="-12" x2="38" y2="-12"/>
    <line x1="-46" y1="26" x2="38" y2="26"/>
    <line x1="-46" y1="64" x2="8" y2="64"/>
    <circle cx="52" cy="-12" r="24" stroke="none" fill="#ffffff" fill-opacity="0.9"/>
    <g stroke="#047857" stroke-width="7"><line x1="52" y1="-27" x2="52" y2="3"/><line x1="37" y1="-12" x2="67" y2="-12"/></g>
    <circle cx="52" cy="64" r="24" stroke="none" fill="#ffffff" fill-opacity="0.9"/>
    <g stroke="#047857" stroke-width="7"><line x1="37" y1="64" x2="67" y2="64"/></g>
  </g>
</svg>
