<svg xmlns="http://www.w3.org/2000/svg" viewBox="0 0 1200 630" role="img" aria-label="Prometheus relabel_configs explained — OpsCanopy observability guide">
  <defs>
    <linearGradient id="bg" x1="0" y1="0" x2="1" y2="1"><stop offset="0" stop-color="#8b5cf6"/><stop offset="1" stop-color="#6d28d9"/></linearGradient>
    <linearGradient id="sheen" x1="0" y1="0" x2="0" y2="1"><stop offset="0" stop-color="#ffffff" stop-opacity="0.16"/><stop offset="1" stop-color="#ffffff" stop-opacity="0"/></linearGradient>
    <pattern id="grid" width="40" height="40" patternUnits="userSpaceOnUse"><path d="M40 0 H0 V40" fill="none" stroke="#ffffff" stroke-opacity="0.07" stroke-width="1"/></pattern>
  </defs>
  <rect width="1200" height="630" fill="url(#bg)"/>
  <rect width="1200" height="630" fill="url(#grid)"/>
  <rect width="1200" height="320" fill="url(#sheen)"/>
  <circle cx="980" cy="315" r="210" fill="#ffffff" fill-opacity="0.08"/>
  <text x="80" y="150" font-family="ui-sans-serif, system-ui, Segoe UI, Roboto, sans-serif" font-size="26" font-weight="700" letter-spacing="5" fill="#ffffff" fill-opacity="0.85">OBSERVABILITY</text>
  <text font-family="ui-sans-serif, system-ui, Segoe UI, Roboto, sans-serif" font-size="68" font-weight="800" fill="#ffffff"><tspan x="80" y="300">Prometheus</tspan></text>
  <text font-family="ui-monospace, SFMono-Regular, Menlo, Consolas, monospace" font-size="56" font-weight="800" fill="#ffffff"><tspan x="80" y="384">relabel_configs</tspan></text>
  <text x="80" y="560" font-family="ui-monospace, SFMono-Regular, Menlo, Consolas, monospace" font-size="24" fill="#ffffff" fill-opacity="0.72">opscanopy.com</text>
  <g transform="translate(980,315)" stroke="#ffffff" stroke-opacity="0.95" stroke-width="7" fill="none" stroke-linecap="round" stroke-linejoin="round">
    <path d="M-130 -38 L-72 -38 L-46 0 L-72 38 L-130 38 Z"/>
    <circle cx="-112" cy="0" r="8" fill="#ffffff" fill-opacity="0.9" stroke="none"/>
    <line x1="-40" y1="0" x2="-8" y2="0"/>
    <polyline points="-18,-9 -8,0 -18,9"/>
    <path d="M-2 -38 L56 -38 L82 0 L56 38 L-2 38 Z"/>
    <circle cx="16" cy="0" r="8" fill="#ffffff" fill-opacity="0.9" stroke="none"/>
    <line x1="88" y1="0" x2="120" y2="0"/>
    <polyline points="110,-9 120,0 110,9"/>
    <path d="M126 -38 L184 -38 L210 0 L184 38 L126 38 Z"/>
    <circle cx="144" cy="0" r="8" fill="#ffffff" fill-opacity="0.9" stroke="none"/>
  </g>
</svg>
