<svg xmlns="http://www.w3.org/2000/svg" viewBox="0 0 1200 600" role="img" aria-label="Prometheus relabel_configs Explained: A Practical Guide">
  <defs>
    <linearGradient id="bg" x1="0" y1="0" x2="1" y2="1"><stop offset="0" stop-color="#0f172a"/><stop offset="1" stop-color="#1e293b"/></linearGradient>
    <linearGradient id="accent" x1="0" y1="0" x2="1" y2="0"><stop offset="0" stop-color="#10b981"/><stop offset="1" stop-color="#047857"/></linearGradient>
  </defs>
  <rect width="1200" height="600" rx="24" fill="url(#bg)"/>
  <rect x="1.5" y="1.5" width="1197" height="597" rx="24" fill="none" stroke="#334155" stroke-width="3"/>
  <rect x="72" y="104" width="80" height="8" rx="4" fill="url(#accent)"/>
  <text x="72" y="166" font-family="ui-sans-serif, system-ui, Segoe UI, Roboto, sans-serif" font-size="26" font-weight="600" letter-spacing="3" fill="#34d399">OBSERVABILITY · GUIDE</text>
  <text font-family="ui-sans-serif, system-ui, Segoe UI, Roboto, sans-serif" font-size="70" font-weight="700" fill="#f8fafc"><tspan x="72" y="290">Prometheus</tspan><tspan x="72" y="372">relabel_configs</tspan></text>
  <text x="72" y="540" font-family="ui-monospace, SFMono-Regular, Menlo, Consolas, monospace" font-size="24" fill="#94a3b8">opscanopy.com</text>
  <g transform="translate(950,300)" stroke="#34d399" stroke-width="6" fill="none" stroke-linecap="round" stroke-linejoin="round" opacity="0.95"><path d="M-70 -55 L-25 -55 L0 -30 L-30 0 L-70 -40 Z"/><circle cx="-55" cy="-45" r="6"/><path d="M-30 30 L15 30 L40 55 L10 85 L-30 45 Z"/><circle cx="-15" cy="40" r="6"/><path d="M40 -15 L85 -15 L110 10 L80 40 L40 0 Z"/><circle cx="55" cy="-5" r="6"/><polyline points="-10 -25 35 -10"/><polyline points="22 -16 35 -10 28 3"/></g>
</svg>
