<svg xmlns="http://www.w3.org/2000/svg" viewBox="0 0 400 200" fill="none" role="img" aria-label="Illustration of the cron expression tester tool">
  <!-- Clock panel (left) -->
  <circle cx="104" cy="100" r="60" fill="#b0562e" fill-opacity="0.12"/>
  <circle cx="104" cy="100" r="60" stroke="#b0562e" stroke-width="4"/>
  <circle cx="104" cy="100" r="48" stroke="#b3ab9c" stroke-width="3"/>

  <!-- Hour tick marks -->
  <line x1="104" y1="48" x2="104" y2="58" stroke="#8a8377" stroke-width="3" stroke-linecap="round"/>
  <line x1="156" y1="100" x2="146" y2="100" stroke="#8a8377" stroke-width="3" stroke-linecap="round"/>
  <line x1="104" y1="152" x2="104" y2="142" stroke="#8a8377" stroke-width="3" stroke-linecap="round"/>
  <line x1="52" y1="100" x2="62" y2="100" stroke="#8a8377" stroke-width="3" stroke-linecap="round"/>
  <line x1="141" y1="63" x2="135" y2="69" stroke="#b3ab9c" stroke-width="3" stroke-linecap="round"/>
  <line x1="141" y1="137" x2="135" y2="131" stroke="#b3ab9c" stroke-width="3" stroke-linecap="round"/>
  <line x1="67" y1="137" x2="73" y2="131" stroke="#b3ab9c" stroke-width="3" stroke-linecap="round"/>
  <line x1="67" y1="63" x2="73" y2="69" stroke="#b3ab9c" stroke-width="3" stroke-linecap="round"/>

  <!-- Clock hands -->
  <line x1="104" y1="100" x2="104" y2="68" stroke="#b0562e" stroke-width="4" stroke-linecap="round"/>
  <line x1="104" y1="100" x2="132" y2="112" stroke="#b0562e" stroke-width="4" stroke-linecap="round"/>
  <circle cx="104" cy="100" r="5" fill="#b0562e"/>

  <!-- Connector arrow from clock to cron strip -->
  <line x1="170" y1="100" x2="206" y2="100" stroke="#b3ab9c" stroke-width="3" stroke-linecap="round" stroke-dasharray="2 8"/>
  <path d="M200 92 L210 100 L200 108" stroke="#8a8377" stroke-width="3" stroke-linecap="round" stroke-linejoin="round"/>

  <!-- Cron-field strip (right): 5 cells -->
  <!-- Cell 1 -->
  <rect x="222" y="74" width="28" height="52" rx="7" fill="#b0562e" fill-opacity="0.14" stroke="#b0562e" stroke-width="4"/>
  <path d="M236 92 L236 108 M229 96 L243 104 M243 96 L229 104" stroke="#b0562e" stroke-width="3" stroke-linecap="round"/>

  <!-- Cell 2 -->
  <rect x="254" y="74" width="28" height="52" rx="7" stroke="#b3ab9c" stroke-width="4"/>
  <path d="M268 92 L268 108 M261 96 L275 104 M275 96 L261 104" stroke="#8a8377" stroke-width="3" stroke-linecap="round"/>

  <!-- Cell 3 -->
  <rect x="286" y="74" width="28" height="52" rx="7" fill="#b0562e" fill-opacity="0.14" stroke="#b0562e" stroke-width="4"/>
  <circle cx="300" cy="100" r="5" fill="#b0562e"/>

  <!-- Cell 4 -->
  <rect x="318" y="74" width="28" height="52" rx="7" stroke="#b3ab9c" stroke-width="4"/>
  <path d="M332 92 L332 108 M325 96 L339 104 M339 96 L325 104" stroke="#8a8377" stroke-width="3" stroke-linecap="round"/>

  <!-- Cell 5 -->
  <rect x="350" y="74" width="22" height="52" rx="7" fill="#b0562e" fill-opacity="0.14" stroke="#b0562e" stroke-width="4"/>
  <path d="M361 92 L361 108 M355 96 L367 104 M367 96 L355 104" stroke="#b0562e" stroke-width="3" stroke-linecap="round"/>

  <!-- Next-run dots beneath strip -->
  <circle cx="236" cy="146" r="3" fill="#b3ab9c"/>
  <circle cx="268" cy="146" r="3" fill="#b3ab9c"/>
  <circle cx="300" cy="146" r="3" fill="#b0562e"/>
  <circle cx="332" cy="146" r="3" fill="#b3ab9c"/>
</svg>
