<svg xmlns="http://www.w3.org/2000/svg" viewBox="0 0 400 200" fill="none" role="img" aria-label="Illustration of the github actions validator tool">
  <!-- YAML workflow file card -->
  <rect x="40" y="40" width="148" height="120" rx="10" fill="#0e7490" fill-opacity="0.12" stroke="#0e7490" stroke-width="4" stroke-linejoin="round"/>
  <!-- folded corner -->
  <path d="M158 40 L188 70 L158 70 Z" fill="#0e7490" fill-opacity="0.18" stroke="#0e7490" stroke-width="3" stroke-linejoin="round"/>

  <!-- YAML lines (key/value abstraction) -->
  <line x1="60" y1="66" x2="92" y2="66" stroke="#64748b" stroke-width="4" stroke-linecap="round"/>
  <line x1="100" y1="66" x2="130" y2="66" stroke="#94a3b8" stroke-width="4" stroke-linecap="round"/>

  <line x1="72" y1="86" x2="100" y2="86" stroke="#64748b" stroke-width="4" stroke-linecap="round"/>
  <line x1="108" y1="86" x2="142" y2="86" stroke="#94a3b8" stroke-width="4" stroke-linecap="round"/>

  <line x1="72" y1="106" x2="96" y2="106" stroke="#64748b" stroke-width="4" stroke-linecap="round"/>
  <line x1="104" y1="106" x2="138" y2="106" stroke="#94a3b8" stroke-width="4" stroke-linecap="round"/>

  <line x1="60" y1="126" x2="88" y2="126" stroke="#64748b" stroke-width="4" stroke-linecap="round"/>
  <line x1="96" y1="126" x2="124" y2="126" stroke="#94a3b8" stroke-width="4" stroke-linecap="round"/>

  <!-- check badge over the card -->
  <circle cx="172" cy="138" r="22" fill="#0e7490" fill-opacity="0.15" stroke="#0e7490" stroke-width="4"/>
  <path d="M162 138 L169 146 L183 130" stroke="#0e7490" stroke-width="4" stroke-linecap="round" stroke-linejoin="round"/>

  <!-- connector from file to pipeline -->
  <line x1="188" y1="100" x2="232" y2="100" stroke="#94a3b8" stroke-width="3" stroke-linecap="round"/>

  <!-- pipeline of connected circular nodes -->
  <line x1="252" y1="100" x2="300" y2="100" stroke="#64748b" stroke-width="3" stroke-linecap="round"/>
  <line x1="320" y1="100" x2="346" y2="78" stroke="#64748b" stroke-width="3" stroke-linecap="round"/>
  <line x1="320" y1="100" x2="346" y2="122" stroke="#64748b" stroke-width="3" stroke-linecap="round"/>

  <circle cx="242" cy="100" r="14" fill="#0e7490" fill-opacity="0.14" stroke="#0e7490" stroke-width="4"/>
  <circle cx="310" cy="100" r="14" fill="#0e7490" fill-opacity="0.14" stroke="#0e7490" stroke-width="4"/>
  <circle cx="358" cy="68" r="12" fill="#0e7490" fill-opacity="0.10" stroke="#94a3b8" stroke-width="4"/>
  <circle cx="358" cy="132" r="12" fill="#0e7490" fill-opacity="0.10" stroke="#94a3b8" stroke-width="4"/>

  <!-- node tick marks -->
  <circle cx="242" cy="100" r="4" fill="#0e7490"/>
  <path d="M304 100 L309 105 L317 95" stroke="#0e7490" stroke-width="3" stroke-linecap="round" stroke-linejoin="round"/>
</svg>
