<svg xmlns="http://www.w3.org/2000/svg" viewBox="0 0 400 200" fill="none" role="img" aria-label="Illustration of the hash generator tool">
  <!-- Input text card -->
  <rect x="34" y="58" width="92" height="84" rx="10" fill="#b0503f" fill-opacity="0.12" stroke="#b0503f" stroke-width="3.5" stroke-linejoin="round"/>
  <line x1="50" y1="80" x2="110" y2="80" stroke="#b3ab9c" stroke-width="3.5" stroke-linecap="round"/>
  <line x1="50" y1="94" x2="110" y2="94" stroke="#b3ab9c" stroke-width="3.5" stroke-linecap="round"/>
  <line x1="50" y1="108" x2="100" y2="108" stroke="#b3ab9c" stroke-width="3.5" stroke-linecap="round"/>
  <line x1="50" y1="122" x2="86" y2="122" stroke="#8a8377" stroke-width="3.5" stroke-linecap="round"/>

  <!-- Arrow feeding into the hash block -->
  <line x1="130" y1="100" x2="178" y2="100" stroke="#b0503f" stroke-width="4" stroke-linecap="round"/>
  <path d="M170 91 L182 100 L170 109" fill="none" stroke="#b0503f" stroke-width="4" stroke-linecap="round" stroke-linejoin="round"/>

  <!-- Fixed-length hash block: grid of hex cells -->
  <rect x="190" y="54" width="124" height="92" rx="10" fill="#b0503f" fill-opacity="0.10" stroke="#b0503f" stroke-width="3.5" stroke-linejoin="round"/>
  <!-- vertical grid lines -->
  <line x1="221" y1="54" x2="221" y2="146" stroke="#b3ab9c" stroke-width="2.5"/>
  <line x1="252" y1="54" x2="252" y2="146" stroke="#b3ab9c" stroke-width="2.5"/>
  <line x1="283" y1="54" x2="283" y2="146" stroke="#b3ab9c" stroke-width="2.5"/>
  <!-- horizontal grid lines -->
  <line x1="190" y1="84" x2="314" y2="84" stroke="#b3ab9c" stroke-width="2.5"/>
  <line x1="190" y1="115" x2="314" y2="115" stroke="#b3ab9c" stroke-width="2.5"/>
  <!-- hex cell ticks (abstract, no letters) -->
  <line x1="200" y1="69" x2="211" y2="69" stroke="#8a8377" stroke-width="3" stroke-linecap="round"/>
  <line x1="231" y1="69" x2="242" y2="69" stroke="#8a8377" stroke-width="3" stroke-linecap="round"/>
  <line x1="262" y1="69" x2="273" y2="69" stroke="#8a8377" stroke-width="3" stroke-linecap="round"/>
  <line x1="293" y1="69" x2="304" y2="69" stroke="#8a8377" stroke-width="3" stroke-linecap="round"/>
  <line x1="200" y1="100" x2="211" y2="100" stroke="#8a8377" stroke-width="3" stroke-linecap="round"/>
  <line x1="231" y1="100" x2="242" y2="100" stroke="#b0503f" stroke-width="3" stroke-linecap="round"/>
  <line x1="262" y1="100" x2="273" y2="100" stroke="#8a8377" stroke-width="3" stroke-linecap="round"/>
  <line x1="293" y1="100" x2="304" y2="100" stroke="#8a8377" stroke-width="3" stroke-linecap="round"/>
  <line x1="200" y1="131" x2="211" y2="131" stroke="#8a8377" stroke-width="3" stroke-linecap="round"/>
  <line x1="231" y1="131" x2="242" y2="131" stroke="#8a8377" stroke-width="3" stroke-linecap="round"/>
  <line x1="262" y1="131" x2="273" y2="131" stroke="#b0503f" stroke-width="3" stroke-linecap="round"/>
  <line x1="293" y1="131" x2="304" y2="131" stroke="#8a8377" stroke-width="3" stroke-linecap="round"/>

  <!-- Fingerprint hint -->
  <g stroke="#b0503f" stroke-width="3" stroke-linecap="round" fill="none">
    <path d="M338 78 C338 64 350 56 360 60"/>
    <path d="M334 96 C334 74 354 64 366 78"/>
    <path d="M338 116 C336 96 348 84 360 90 C366 93 368 100 367 110"/>
    <path d="M345 130 C343 114 348 104 357 106 C362 107 363 114 362 124"/>
    <path d="M352 137 C351 126 353 118 358 120"/>
  </g>
</svg>
