<svg xmlns="http://www.w3.org/2000/svg" viewBox="0 0 400 200" fill="none" role="img" aria-label="Illustration of the loki alert rule tester tool">
  <!-- Left: log-stream panel -->
  <rect x="36" y="48" width="132" height="104" rx="10" fill="#7a5aa0" fill-opacity="0.12" stroke="#7a5aa0" stroke-width="3.5" stroke-linejoin="round"/>
  <!-- log lines (stream) -->
  <line x1="54" y1="72" x2="118" y2="72" stroke="#8a8377" stroke-width="4" stroke-linecap="round"/>
  <line x1="54" y1="90" x2="150" y2="90" stroke="#b3ab9c" stroke-width="4" stroke-linecap="round"/>
  <line x1="54" y1="108" x2="104" y2="108" stroke="#b3ab9c" stroke-width="4" stroke-linecap="round"/>
  <line x1="54" y1="126" x2="138" y2="126" stroke="#8a8377" stroke-width="4" stroke-linecap="round"/>

  <!-- Flow connectors from logs into the bell -->
  <path d="M150 90 H214" stroke="#7a5aa0" stroke-width="3.5" stroke-linecap="round"/>
  <path d="M138 126 H188 q12 0 12 -12 V104" stroke="#b3ab9c" stroke-width="3" stroke-linecap="round" stroke-linejoin="round"/>
  <circle cx="214" cy="90" r="4" fill="#7a5aa0"/>

  <!-- Right: alert bell -->
  <path d="M252 118 q0 -42 28 -50 a8 8 0 0 1 16 0 q28 8 28 50 l8 12 H244 Z" fill="#7a5aa0" fill-opacity="0.14" stroke="#7a5aa0" stroke-width="3.5" stroke-linejoin="round"/>
  <path d="M276 132 q12 8 24 0" stroke="#8a8377" stroke-width="3.5" stroke-linecap="round" stroke-linejoin="round"/>
  <!-- ringing accents -->
  <path d="M330 70 q12 8 12 22" stroke="#b3ab9c" stroke-width="3" stroke-linecap="round"/>
  <path d="M246 70 q-12 8 -12 22" stroke="#b3ab9c" stroke-width="3" stroke-linecap="round"/>

  <!-- Pass tick badge -->
  <circle cx="320" cy="138" r="20" fill="#7a5aa0" fill-opacity="0.15" stroke="#7a5aa0" stroke-width="3.5"/>
  <path d="M311 138 l6 7 l12 -15" stroke="#7a5aa0" stroke-width="4" stroke-linecap="round" stroke-linejoin="round"/>
</svg>
