<svg xmlns="http://www.w3.org/2000/svg" viewBox="0 0 400 200" fill="none" role="img" aria-label="Illustration of the regex log tester tool">
  <!-- log panel -->
  <rect x="48" y="40" width="304" height="120" rx="12" fill="#be185d" fill-opacity="0.10" stroke="#94a3b8" stroke-width="3" stroke-linejoin="round"/>
  <!-- panel divider rail -->
  <line x1="80" y1="48" x2="80" y2="152" stroke="#94a3b8" stroke-width="3" stroke-linecap="round"/>
  <!-- line number ticks -->
  <circle cx="64" cy="74" r="3.5" fill="#64748b"/>
  <circle cx="64" cy="100" r="3.5" fill="#64748b"/>
  <circle cx="64" cy="126" r="3.5" fill="#64748b"/>

  <!-- log line 1 (no match) -->
  <line x1="98" y1="74" x2="150" y2="74" stroke="#94a3b8" stroke-width="4" stroke-linecap="round"/>
  <line x1="166" y1="74" x2="232" y2="74" stroke="#94a3b8" stroke-width="4" stroke-linecap="round"/>
  <line x1="248" y1="74" x2="300" y2="74" stroke="#94a3b8" stroke-width="4" stroke-linecap="round"/>

  <!-- log line 2 (the matched line) -->
  <line x1="98" y1="100" x2="142" y2="100" stroke="#64748b" stroke-width="4" stroke-linecap="round"/>
  <!-- capture group highlight box -->
  <rect x="156" y="88" width="96" height="24" rx="7" fill="#be185d" fill-opacity="0.16" stroke="#be185d" stroke-width="3.5" stroke-linejoin="round"/>
  <line x1="170" y1="100" x2="238" y2="100" stroke="#be185d" stroke-width="4" stroke-linecap="round"/>
  <line x1="268" y1="100" x2="312" y2="100" stroke="#64748b" stroke-width="4" stroke-linecap="round"/>

  <!-- log line 3 (no match) -->
  <line x1="98" y1="126" x2="138" y2="126" stroke="#94a3b8" stroke-width="4" stroke-linecap="round"/>
  <line x1="154" y1="126" x2="204" y2="126" stroke="#94a3b8" stroke-width="4" stroke-linecap="round"/>
  <line x1="220" y1="126" x2="296" y2="126" stroke="#94a3b8" stroke-width="4" stroke-linecap="round"/>

  <!-- regex brackets framing the pattern, above the match -->
  <path d="M150 28 q-12 0 -12 10 v6 q0 6 -8 6 q8 0 8 6 v6 q0 10 12 10" fill="none" stroke="#be185d" stroke-width="3.5" stroke-linecap="round" stroke-linejoin="round"/>
  <path d="M258 28 q12 0 12 10 v6 q0 6 8 6 q-8 0 -8 6 v6 q0 10 -12 10" fill="none" stroke="#be185d" stroke-width="3.5" stroke-linecap="round" stroke-linejoin="round"/>
  <!-- capture group dot inside brackets -->
  <circle cx="204" cy="50" r="4" fill="#be185d"/>
  <circle cx="186" cy="50" r="3" fill="#94a3b8"/>
  <circle cx="222" cy="50" r="3" fill="#94a3b8"/>
</svg>
