<svg xmlns="http://www.w3.org/2000/svg" viewBox="0 0 400 200" fill="none" role="img" aria-label="Illustration of the reverse dns ptr tool">
  <!-- LEFT: IP address block (numeric panel) -->
  <rect x="40" y="58" width="108" height="84" rx="10" fill="#3f6ea5" fill-opacity="0.12" stroke="#3f6ea5" stroke-width="4" stroke-linejoin="round"/>
  <!-- IP octet tick marks (four octets, no letters) -->
  <line x1="58" y1="84" x2="84" y2="84" stroke="#3f6ea5" stroke-width="4" stroke-linecap="round"/>
  <circle cx="94" cy="84" r="2.5" fill="#8a8377"/>
  <line x1="104" y1="84" x2="130" y2="84" stroke="#3f6ea5" stroke-width="4" stroke-linecap="round"/>
  <line x1="58" y1="100" x2="78" y2="100" stroke="#b3ab9c" stroke-width="4" stroke-linecap="round"/>
  <circle cx="88" cy="100" r="2.5" fill="#8a8377"/>
  <line x1="98" y1="100" x2="130" y2="100" stroke="#b3ab9c" stroke-width="4" stroke-linecap="round"/>
  <line x1="58" y1="116" x2="72" y2="116" stroke="#b3ab9c" stroke-width="4" stroke-linecap="round"/>
  <circle cx="82" cy="116" r="2.5" fill="#8a8377"/>
  <line x1="92" y1="116" x2="130" y2="116" stroke="#b3ab9c" stroke-width="4" stroke-linecap="round"/>

  <!-- RIGHT: hostname tag (label/luggage tag shape) -->
  <path d="M268 64 L344 64 Q356 64 360 75 L368 98 Q370 102 368 106 L360 129 Q356 140 344 140 L268 140 Q262 140 262 134 L262 70 Q262 64 268 64 Z" fill="#3f6ea5" fill-opacity="0.12" stroke="#3f6ea5" stroke-width="4" stroke-linejoin="round"/>
  <!-- tag eyelet -->
  <circle cx="277" cy="102" r="6" fill="none" stroke="#3f6ea5" stroke-width="3.5"/>
  <!-- hostname segments (dotted name parts, abstract) -->
  <line x1="296" y1="93" x2="320" y2="93" stroke="#3f6ea5" stroke-width="4" stroke-linecap="round"/>
  <circle cx="330" cy="93" r="2.5" fill="#8a8377"/>
  <line x1="296" y1="111" x2="312" y2="111" stroke="#b3ab9c" stroke-width="4" stroke-linecap="round"/>
  <circle cx="322" cy="111" r="2.5" fill="#8a8377"/>
  <line x1="332" y1="111" x2="346" y2="111" stroke="#b3ab9c" stroke-width="4" stroke-linecap="round"/>

  <!-- CENTER: two-way PTR lookup arrows between IP and hostname -->
  <!-- top arrow: IP -> hostname -->
  <line x1="160" y1="90" x2="246" y2="90" stroke="#3f6ea5" stroke-width="4" stroke-linecap="round"/>
  <polyline points="238,82 248,90 238,98" stroke="#3f6ea5" stroke-width="4" stroke-linecap="round" stroke-linejoin="round"/>
  <!-- bottom arrow: hostname -> IP -->
  <line x1="246" y1="112" x2="160" y2="112" stroke="#b3ab9c" stroke-width="4" stroke-linecap="round"/>
  <polyline points="168,104 158,112 168,120" stroke="#b3ab9c" stroke-width="4" stroke-linecap="round" stroke-linejoin="round"/>

  <!-- center exchange dots -->
  <circle cx="200" cy="90" r="3" fill="#3f6ea5"/>
  <circle cx="200" cy="112" r="3" fill="#b3ab9c" fill-opacity="0.9"/>

  <!-- small white highlight accents -->
  <circle cx="277" cy="102" r="2" fill="#ffffff" fill-opacity="0.35"/>
</svg>
