<svg xmlns="http://www.w3.org/2000/svg" viewBox="0 0 400 200" fill="none" role="img" aria-label="Illustration of the timestamp converter tool">
  <!-- Clock -->
  <circle cx="78" cy="100" r="38" fill="#b45309" fill-opacity="0.12" stroke="#b45309" stroke-width="4"/>
  <circle cx="78" cy="100" r="4" fill="#b45309"/>
  <!-- clock hands -->
  <path d="M78 100 L78 74" stroke="#b45309" stroke-width="4" stroke-linecap="round"/>
  <path d="M78 100 L97 109" stroke="#b45309" stroke-width="4" stroke-linecap="round"/>
  <!-- tick marks -->
  <path d="M78 66 L78 70" stroke="#64748b" stroke-width="3" stroke-linecap="round"/>
  <path d="M78 130 L78 134" stroke="#64748b" stroke-width="3" stroke-linecap="round"/>
  <path d="M44 100 L48 100" stroke="#64748b" stroke-width="3" stroke-linecap="round"/>
  <path d="M108 100 L112 100" stroke="#64748b" stroke-width="3" stroke-linecap="round"/>

  <!-- Epoch-number chip -->
  <rect x="138" y="44" width="86" height="44" rx="10" fill="#b45309" fill-opacity="0.12" stroke="#b45309" stroke-width="4"/>
  <!-- abstract digit ticks -->
  <path d="M154 60 L154 72" stroke="#64748b" stroke-width="3" stroke-linecap="round"/>
  <path d="M168 60 L168 72" stroke="#64748b" stroke-width="3" stroke-linecap="round"/>
  <path d="M182 60 L182 72" stroke="#64748b" stroke-width="3" stroke-linecap="round"/>
  <path d="M196 60 L196 72" stroke="#64748b" stroke-width="3" stroke-linecap="round"/>
  <path d="M210 60 L210 72" stroke="#64748b" stroke-width="3" stroke-linecap="round"/>

  <!-- Two-way convert arrow (vertical, between chips) -->
  <path d="M181 96 L181 116" stroke="#94a3b8" stroke-width="4" stroke-linecap="round"/>
  <path d="M175 102 L181 96 L187 102" stroke="#94a3b8" stroke-width="4" stroke-linecap="round" stroke-linejoin="round"/>
  <path d="M175 110 L181 116 L187 110" stroke="#94a3b8" stroke-width="4" stroke-linecap="round" stroke-linejoin="round"/>

  <!-- Human date / calendar chip -->
  <rect x="138" y="124" width="86" height="44" rx="10" fill="#b45309" fill-opacity="0.10" stroke="#b45309" stroke-width="4"/>
  <!-- calendar binder tabs -->
  <path d="M158 118 L158 130" stroke="#b45309" stroke-width="4" stroke-linecap="round"/>
  <path d="M204 118 L204 130" stroke="#b45309" stroke-width="4" stroke-linecap="round"/>
  <!-- calendar header line -->
  <path d="M138 140 L224 140" stroke="#b45309" stroke-width="3" stroke-linecap="round"/>
  <!-- date grid dots -->
  <circle cx="156" cy="152" r="3" fill="#64748b"/>
  <circle cx="172" cy="152" r="3" fill="#64748b"/>
  <circle cx="188" cy="152" r="3" fill="#b45309"/>
  <circle cx="204" cy="152" r="3" fill="#64748b"/>

  <!-- Horizontal two-way convert arrow: clock <-> chips -->
  <path d="M122 100 L132 100" stroke="#94a3b8" stroke-width="4" stroke-linecap="round"/>

  <!-- Output / human-readable result panel with arrow from chips -->
  <path d="M232 100 L268 100" stroke="#94a3b8" stroke-width="4" stroke-linecap="round"/>
  <path d="M260 93 L268 100 L260 107" stroke="#94a3b8" stroke-width="4" stroke-linecap="round" stroke-linejoin="round"/>
  <path d="M244 93 L236 100 L244 107" stroke="#94a3b8" stroke-width="4" stroke-linecap="round" stroke-linejoin="round"/>

  <!-- Result card (relative age / readable date) -->
  <rect x="276" y="70" width="92" height="60" rx="12" fill="#b45309" fill-opacity="0.14" stroke="#b45309" stroke-width="4"/>
  <path d="M292 92 L352 92" stroke="#94a3b8" stroke-width="3" stroke-linecap="round"/>
  <path d="M292 104 L340 104" stroke="#64748b" stroke-width="3" stroke-linecap="round"/>
  <path d="M292 116 L348 116" stroke="#94a3b8" stroke-width="3" stroke-linecap="round"/>
  <circle cx="296" cy="60" r="6" fill="#b45309" fill-opacity="0.18" stroke="#b45309" stroke-width="3"/>
</svg>
